<?xml version="1.0" encoding="UTF-8" standalone="no"?>
<svg
   width="48"
   height="48"
   viewBox="0 0 48 48"
   fill="none"
   version="1.1"
   id="svg1"
   sodipodi:docname="ic_fluent_document_48_regular.svg"
   xml:space="preserve"
   inkscape:version="1.4.2 (ebf0e940, 2025-05-08)"
   inkscape:export-filename="ic_fluent_document_48_regular.png"
   inkscape:export-xdpi="1024"
   inkscape:export-ydpi="1024"
   xmlns:inkscape="http://www.inkscape.org/namespaces/inkscape"
   xmlns:sodipodi="http://sodipodi.sourceforge.net/DTD/sodipodi-0.dtd"
   xmlns="http://www.w3.org/2000/svg"
   xmlns:svg="http://www.w3.org/2000/svg"><defs
     id="defs1" /><sodipodi:namedview
     id="namedview1"
     pagecolor="#ffffff"
     bordercolor="#999999"
     borderopacity="1"
     inkscape:showpageshadow="2"
     inkscape:pageopacity="0"
     inkscape:pagecheckerboard="0"
     inkscape:deskcolor="#d1d1d1"
     inkscape:zoom="7.4536549"
     inkscape:cx="16.367809"
     inkscape:cy="21.197654"
     inkscape:window-width="1472"
     inkscape:window-height="891"
     inkscape:window-x="0"
     inkscape:window-y="37"
     inkscape:window-maximized="0"
     inkscape:current-layer="svg1" /><path
     d="M10.5 8.25C10.5 7.2835 11.2835 6.5 12.25 6.5H24V15.75C24 18.0972 25.9028 20 28.25 20H37.5V39.75C37.5 40.7165 36.7165 41.5 35.75 41.5H12.25C11.2835 41.5 10.5 40.7165 10.5 39.75V8.25ZM36.4822 17.5H28.25C27.2835 17.5 26.5 16.7165 26.5 15.75V7.51777L36.4822 17.5ZM12.25 4C9.90279 4 8 5.90279 8 8.25V39.75C8 42.0972 9.90279 44 12.25 44H35.75C38.0972 44 40 42.0972 40 39.75V19.2426C40 18.1155 39.5522 17.0345 38.7552 16.2374L27.7626 5.2448C26.9655 4.44777 25.8845 4 24.7574 4H12.25Z"
     fill="#212121"
     id="path1"
     style="fill:#506341;fill-opacity:1;stroke:#506341;stroke-opacity:1" /><circle
     style="fill:#506341;fill-opacity:1;fill-rule:evenodd;stroke:#506341;stroke-width:0.623622;stroke-opacity:1"
     id="path3"
     r="9.6814547"
     cy="35.938732"
     cx="11.681454" /><g
     style="fill:#ffffff"
     id="g4"
     transform="matrix(0.37035795,0,0,0.37035795,2.8732816,27.092599)"><path
       d="m 14.9007,9.81738 c 2.3893,-1.45609 5.8019,-2.23101 9.3574,-2.11214 3.549,0.11865 7.0926,1.12314 9.7582,3.05656 0.5589,0.4054 1.3405,0.2809 1.7458,-0.2779 C 36.1675,9.92505 36.043,9.14344 35.4842,8.73811 32.3237,6.44571 28.2632,5.33775 24.3416,5.20663 20.4266,5.07574 16.5022,5.91374 13.5997,7.68256 c -0.5895,0.35926 -0.7762,1.12839 -0.4169,1.7179 0.3592,0.58952 1.1284,0.77614 1.7179,0.41692 z m 10.4967,1.18792 c -0.6855,-0.0814 -1.3072,0.4084 -1.3886,1.094 -0.0813,0.6855 0.4085,1.3072 1.094,1.3886 7.8292,0.9292 12.9241,6.9757 14.4161,15.4782 0.1194,0.6799 0.7673,1.1344 1.4473,1.0151 0.6799,-0.1193 1.1344,-0.7673 1.0151,-1.4472 -1.624,-9.2549 -7.3549,-16.4334 -16.5839,-17.5287 z m -6.7022,10.0794 c -3.8173,3.0548 -6.0024,9.6712 -1.8252,18.1108 0.3062,0.6188 0.0529,1.3686 -0.5658,1.6748 -0.6188,0.3062 -1.3686,0.0529 -1.6748,-0.5658 -4.5835,-9.2606 -2.4189,-17.2324 2.5037,-21.1717 2.4388,-1.9516 5.5218,-2.8651 8.6314,-2.3765 3.1203,0.4903 6.145,2.3715 8.5119,5.7809 0.3937,0.5671 0.2532,1.3459 -0.3139,1.7396 -0.5671,0.3937 -1.346,0.2532 -1.7397,-0.3139 -2.0334,-2.929 -4.4914,-4.3669 -6.8463,-4.7369 -2.3656,-0.3717 -4.7501,0.3132 -6.6813,1.8587 z m 4.6783,20.1108 c -2.5595,-5.1713 -3.34,-9.5409 -2.8756,-12.4331 0.2303,-1.4343 0.7492,-2.4134 1.4036,-3.0014 0.6307,-0.5667 1.5104,-0.8822 2.7306,-0.7666 1.6234,0.154 2.3827,0.6876 2.8519,1.3247 0.5421,0.7361 0.8278,1.7702 1.1538,3.2433 0.0323,0.1461 0.0648,0.2951 0.0978,0.4467 0.6059,2.7836 1.4053,6.4565 5.2865,9.2548 0.56,0.4038 1.3412,0.2771 1.745,-0.2829 0.4037,-0.56 0.2771,-1.3412 -0.2829,-1.745 C 32.3933,35.0075 31.7741,32.1878 31.1579,29.3816 31.1315,29.2617 31.1052,29.1419 31.0787,29.0222 30.7684,27.6196 30.4,26.0628 29.497,24.8367 28.5212,23.5116 27.0445,22.712 24.868,22.5056 c -1.8103,-0.1716 -3.413,0.2957 -4.6374,1.3958 -1.2008,1.0789 -1.9098,2.6505 -2.2011,4.4646 -0.5788,3.6046 0.4227,8.5224 3.1034,13.9385 0.3062,0.6187 1.0561,0.872 1.6748,0.5658 0.6187,-0.3063 0.872,-1.0561 0.5658,-1.6748 z M 11.6875,10.9231 c 0.4567,0.5176 0.4073,1.3076 -0.1104,1.7643 -1.59633,1.4083 -2.67305,2.8266 -3.74357,4.6862 -0.34442,0.5983 -1.10865,0.8042 -1.70695,0.4597 -0.5983,-0.3444 -0.80411,-1.1086 -0.45969,-1.7069 1.17651,-2.0438 2.41582,-3.69 4.25627,-5.3137 0.51764,-0.4568 1.30764,-0.4073 1.76434,0.1104 z m 24.5478,17.6348 c -0.1061,-0.6822 -0.7451,-1.1491 -1.4272,-1.0431 -0.6822,0.1061 -1.1492,0.7451 -1.0431,1.4273 0.5096,3.2767 2.2049,5.3474 4.2551,6.8225 0.5604,0.4032 1.3415,0.2758 1.7447,-0.2846 0.4032,-0.5603 0.2758,-1.3415 -0.2846,-1.7447 -1.6256,-1.1696 -2.8586,-2.694 -3.2449,-5.1774 z M 24.1566,28.5035 c 0.6885,-0.0516 1.2884,0.4647 1.34,1.1531 0.3054,4.0757 1.7972,7.5275 4.1946,10.2708 0.4543,0.5198 0.4012,1.3095 -0.1186,1.7638 -0.5199,0.4543 -1.3095,0.4012 -1.7638,-0.1187 -2.7618,-3.1602 -4.4603,-7.127 -4.8052,-11.7291 -0.0516,-0.6884 0.4646,-1.2883 1.153,-1.3399 z M 20.2347,13.9022 C 20.871,13.6345 21.1698,12.9016 20.9021,12.2653 20.6344,11.629 19.9016,11.3301 19.2652,11.5978 10.2936,15.3722 5.82054,23.813 7.00871,33.8963 7.0895,34.5819 7.71079,35.0722 8.3964,34.9914 9.08201,34.9106 9.57232,34.2894 9.49153,33.6037 8.41932,24.5045 12.3986,17.1988 20.2347,13.9022 Z"
       fill="#212121"
       id="path1-9"
       style="fill:#ffffff" /></g></svg>
